<svg xmlns="http://www.w3.org/2000/svg" viewBox="0 0 800 400" width="800" height="400" font-family="Arial, sans-serif"><rect width="800" height="400" fill="#0f172a"/><text x="400" y="30" text-anchor="middle" fill="#f8fafc" font-size="16" font-weight="bold">AppPoint Usage Trend — 12 Months (MAS9 Power)</text><text x="400" y="48" text-anchor="middle" fill="#94a3b8" font-size="10">Planning/demo data only — not legal compliance</text><text x="50" y="320" fill="#94a3b8" font-size="10" text-anchor="end">0</text><text x="50" y="247" fill="#94a3b8" font-size="10" text-anchor="end">800</text><text x="50" y="174" fill="#94a3b8" font-size="10" text-anchor="end">1600</text><text x="50" y="101" fill="#94a3b8" font-size="10" text-anchor="end">2400</text><line x1="60" y1="100" x2="760" y2="100" stroke="#1e293b"/><line x1="60" y1="173" x2="760" y2="173" stroke="#1e293b"/><line x1="60" y1="246" x2="760" y2="246" stroke="#1e293b"/><line x1="60" y1="319" x2="760" y2="319" stroke="#1e293b"/><polyline points="60,100 120,100 180,100 240,100 300,100 360,100 420,100 480,100 540,100 600,100 660,100 720,100" fill="none" stroke="#ef4444" stroke-width="2" stroke-dasharray="6,3"/><polyline points="60,175 120,173 180,168 240,161 300,157 360,155 420,154 480,158 540,152 600,150 660,146 720,144" fill="none" stroke="#f59e0b" stroke-width="2"/><polyline points="60,196 120,192 180,187 240,180 300,176 360,175 420,174 480,177 540,173 600,172 660,171 720,171" fill="none" stroke="#22d3ee" stroke-width="2.5"/><text x="60" y="340" fill="#94a3b8" font-size="9" text-anchor="middle">May-25</text><text x="240" y="340" fill="#94a3b8" font-size="9" text-anchor="middle">Aug-25</text><text x="420" y="340" fill="#94a3b8" font-size="9" text-anchor="middle">Nov-25</text><text x="600" y="340" fill="#94a3b8" font-size="9" text-anchor="middle">Feb-26</text><text x="720" y="340" fill="#94a3b8" font-size="9" text-anchor="middle">Apr-26</text><line x1="80" y1="370" x2="110" y2="370" stroke="#ef4444" stroke-width="2" stroke-dasharray="6,3"/><text x="115" y="374" fill="#94a3b8" font-size="10">Entitled (2400)</text><line x1="240" y1="370" x2="270" y2="370" stroke="#f59e0b" stroke-width="2"/><text x="275" y="374" fill="#94a3b8" font-size="10">Peak Used</text><line x1="380" y1="370" x2="410" y2="370" stroke="#22d3ee" stroke-width="2"/><text x="415" y="374" fill="#94a3b8" font-size="10">Est. Used</text><text x="720" y="160" fill="#22d3ee" font-size="9">77%</text></svg>