<svg xmlns="http://www.w3.org/2000/svg" viewBox="0 0 600 380" width="600" height="380" font-family="Arial, sans-serif"><rect width="600" height="380" fill="#0f172a"/><text x="300" y="28" text-anchor="middle" fill="#f8fafc" font-size="15" font-weight="bold">Patch Impact Risk — MAS Manage Fix Pack 9.1.2</text><text x="300" y="46" text-anchor="middle" fill="#94a3b8" font-size="10">46 customisations scanned | Overall Risk: MEDIUM</text><rect x="50" y="70" width="150" height="60" rx="8" fill="#1e293b" stroke="#ef4444" stroke-width="2"/><text x="125" y="95" text-anchor="middle" fill="#ef4444" font-size="22" font-weight="bold">0</text><text x="125" y="118" text-anchor="middle" fill="#ef4444" font-size="12">Critical</text><rect x="220" y="70" width="150" height="60" rx="8" fill="#1e293b" stroke="#f97316" stroke-width="2"/><text x="295" y="95" text-anchor="middle" fill="#f97316" font-size="22" font-weight="bold">2</text><text x="295" y="118" text-anchor="middle" fill="#f97316" font-size="12">High</text><rect x="390" y="70" width="170" height="60" rx="8" fill="#1e293b" stroke="#f59e0b" stroke-width="2"/><text x="475" y="95" text-anchor="middle" fill="#f59e0b" font-size="22" font-weight="bold">3</text><text x="475" y="118" text-anchor="middle" fill="#f59e0b" font-size="12">Medium</text><rect x="50" y="155" width="150" height="60" rx="8" fill="#1e293b" stroke="#22c55e" stroke-width="2"/><text x="125" y="180" text-anchor="middle" fill="#22c55e" font-size="22" font-weight="bold">2</text><text x="125" y="203" text-anchor="middle" fill="#22c55e" font-size="12">Low</text><rect x="220" y="155" width="340" height="60" rx="8" fill="#1e293b" stroke="#334155"/><text x="390" y="180" text-anchor="middle" fill="#94a3b8" font-size="22" font-weight="bold">39</text><text x="390" y="203" text-anchor="middle" fill="#94a3b8" font-size="12">No Impact</text><text x="50" y="248" fill="#f8fafc" font-size="12" font-weight="bold">HIGH Risk Items:</text><text x="50" y="266" fill="#f97316" font-size="11">• MAS9_ASSET_CONDITION_POST — API signature change</text><text x="50" y="282" fill="#f97316" font-size="11">• MAS9_OUTAGE_ESCALATION — parameter change required</text><text x="50" y="302" fill="#f8fafc" font-size="12" font-weight="bold">MEDIUM Risk Items:</text><text x="50" y="320" fill="#f59e0b" font-size="11">• PM_GENERATION_CRON — new required parameter</text><text x="50" y="336" fill="#f59e0b" font-size="11">• MAS9_ASSET_STATUS_UTIL — domain value conflict</text><text x="50" y="352" fill="#f59e0b" font-size="11">• MAS9_VEGETATION_WO_HOOK — API deprecation</text><text x="300" y="376" text-anchor="middle" fill="#64748b" font-size="9">Demo seeded evidence — fictional patch impact data</text></svg>