<svg xmlns="http://www.w3.org/2000/svg" viewBox="0 0 700 360" width="700" height="360" font-family="Arial, sans-serif"><rect width="700" height="360" fill="#0f172a"/><text x="350" y="28" text-anchor="middle" fill="#f8fafc" font-size="15" font-weight="bold">Skill Coverage — MAS9 Power Energy &amp; Utilities</text><text x="350" y="46" text-anchor="middle" fill="#94a3b8" font-size="10">8 skills evaluated | 6 ready | 2 not enabled</text><text x="30" y="80" fill="#94a3b8" font-size="11">Offline Maximo Base</text><rect x="240" y="66" width="300" height="18" fill="#22d3ee" rx="3"/><text x="548" y="80" fill="#22d3ee" font-size="11" font-weight="bold">READY</text><text x="30" y="110" fill="#94a3b8" font-size="11">Patch/iFix Impact</text><rect x="240" y="96" width="300" height="18" fill="#22d3ee" rx="3"/><text x="548" y="110" fill="#22d3ee" font-size="11" font-weight="bold">READY</text><text x="30" y="140" fill="#94a3b8" font-size="11">Environment Change Tracker</text><rect x="240" y="126" width="300" height="18" fill="#22d3ee" rx="3"/><text x="548" y="140" fill="#22d3ee" font-size="11" font-weight="bold">READY</text><text x="30" y="170" fill="#94a3b8" font-size="11">Evidence-Based Generation (Jira)</text><rect x="240" y="156" width="300" height="18" fill="#22d3ee" rx="3"/><text x="548" y="170" fill="#22d3ee" font-size="11" font-weight="bold">READY</text><text x="30" y="200" fill="#94a3b8" font-size="11">License Usage Planning</text><rect x="240" y="186" width="300" height="18" fill="#22d3ee" rx="3"/><text x="548" y="200" fill="#22d3ee" font-size="11" font-weight="bold">READY</text><text x="30" y="230" fill="#94a3b8" font-size="11">Maximo Environment Fingerprint</text><rect x="240" y="216" width="300" height="18" fill="#22d3ee" rx="3"/><text x="548" y="230" fill="#22d3ee" font-size="11" font-weight="bold">READY</text><text x="30" y="260" fill="#475569" font-size="11">Contract/Site Onboarding</text><rect x="240" y="246" width="300" height="18" fill="#1e293b" stroke="#334155" rx="3"/><text x="548" y="260" fill="#475569" font-size="11">NOT ENABLED</text><text x="30" y="290" fill="#475569" font-size="11">Legacy Upgrade Readiness</text><rect x="240" y="276" width="300" height="18" fill="#1e293b" stroke="#334155" rx="3"/><text x="548" y="290" fill="#475569" font-size="11">NOT ENABLED</text><rect x="30" y="320" width="200" height="20" fill="#22d3ee" rx="3"/><text x="130" y="334" text-anchor="middle" fill="#0f172a" font-size="11" font-weight="bold">6 Ready</text><rect x="240" y="320" width="200" height="20" fill="#1e293b" stroke="#334155" rx="3"/><text x="340" y="334" text-anchor="middle" fill="#475569" font-size="11">2 Not Enabled</text><rect x="450" y="320" width="200" height="20" fill="#1e293b" stroke="#334155" rx="3"/><text x="550" y="334" text-anchor="middle" fill="#22c55e" font-size="11">0 Blocked</text></svg>