<svg xmlns="http://www.w3.org/2000/svg" width="600" height="400" viewBox="0 0 600 400">
  <rect width="600" height="400" fill="#07111f" rx="12"/>
  <text x="300" y="36" font-family="Inter,sans-serif" font-size="15" font-weight="700" fill="#eef6ff" text-anchor="middle">Work Risk Summary — Patch Impact</text>
  <text x="300" y="54" font-family="Inter,sans-serif" font-size="11" fill="#9fb0c9" text-anchor="middle">7 impacted items · MAS9 Power · fictional demo data only</text>
  <!-- Risk breakdown bars -->
  <!-- Critical -->
  <text x="60" y="106" font-family="Inter,sans-serif" font-size="13" fill="#9fb0c9">Critical</text>
  <rect x="160" y="88" width="380" height="24" rx="4" fill="#233552"/>
  <rect x="160" y="88" width="0" height="24" rx="4" fill="#ff3b3b"/>
  <text x="548" y="106" font-family="Inter,sans-serif" font-size="13" fill="#ff3b3b" text-anchor="end">0</text>
  <!-- High -->
  <text x="60" y="154" font-family="Inter,sans-serif" font-size="13" fill="#9fb0c9">High</text>
  <rect x="160" y="136" width="380" height="24" rx="4" fill="#233552"/>
  <rect x="160" y="136" width="108" height="24" rx="4" fill="#ff6b6b"/>
  <text x="548" y="154" font-family="Inter,sans-serif" font-size="13" fill="#ff6b6b" text-anchor="end">2</text>
  <!-- Medium -->
  <text x="60" y="202" font-family="Inter,sans-serif" font-size="13" fill="#9fb0c9">Medium</text>
  <rect x="160" y="184" width="380" height="24" rx="4" fill="#233552"/>
  <rect x="160" y="184" width="162" height="24" rx="4" fill="#ffc857"/>
  <text x="548" y="202" font-family="Inter,sans-serif" font-size="13" fill="#ffc857" text-anchor="end">3</text>
  <!-- Low -->
  <text x="60" y="250" font-family="Inter,sans-serif" font-size="13" fill="#9fb0c9">Low</text>
  <rect x="160" y="232" width="380" height="24" rx="4" fill="#233552"/>
  <rect x="160" y="232" width="108" height="24" rx="4" fill="#35e890"/>
  <text x="548" y="250" font-family="Inter,sans-serif" font-size="13" fill="#35e890" text-anchor="end">2</text>
  <!-- Total summary -->
  <rect x="60" y="290" width="480" height="60" rx="8" fill="#ffffff" fill-opacity="0.04" stroke="#ffffff" stroke-opacity="0.07" stroke-width="1"/>
  <text x="80" y="316" font-family="Inter,sans-serif" font-size="13" fill="#9fb0c9">Total impacted:</text>
  <text x="200" y="316" font-family="Inter,sans-serif" font-size="14" font-weight="700" fill="#ffc857">7 items</text>
  <text x="80" y="338" font-family="Inter,sans-serif" font-size="12" fill="#9fb0c9">UAT retest recommended · Review-only output · No Maximo mutations</text>
  <text x="300" y="385" font-family="Inter,sans-serif" font-size="10" fill="#4a5568" text-anchor="middle">MAS9 Power — fictional demo data only</text>
</svg>
